<?xml version="1.0" encoding="UTF-8" standalone="no"?>
<!DOCTYPE svg PUBLIC "-//W3C//DTD SVG 1.1//EN"
 "http://www.w3.org/Graphics/SVG/1.1/DTD/svg11.dtd">
<!-- Generated by graphviz version 2.34.0 (20130907.0111)
 -->
<!-- Title: Bundles Pages: 1 -->
<svg width="1537pt" height="303pt"
 viewBox="0.00 0.00 1537.00 303.00" xmlns="http://www.w3.org/2000/svg" xmlns:xlink="http://www.w3.org/1999/xlink">
<g id="graph0" class="graph" transform="scale(1 1) rotate(0) translate(4 299)">
<title>Bundles</title>
<polygon fill="white" stroke="white" points="-4,4 -4,-299 1533,-299 1533,4 -4,4"/>
<text text-anchor="middle" x="764.5" y="-7.8" font-family="Times New Roman,serif" font-size="14.00">Bundle Dependencies</text>
<!-- counters -->
<g id="node1" class="node"><title>counters</title>
<ellipse fill="none" stroke="black" cx="120" cy="-41" rx="42.3701" ry="18"/>
<text text-anchor="middle" x="120" y="-37.3" font-family="Times New Roman,serif" font-size="14.00">counters</text>
</g>
<!-- nestor.bundles.rest -->
<g id="node2" class="node"><title>nestor.bundles.rest</title>
<ellipse fill="none" stroke="black" cx="512" cy="-277" rx="78.9404" ry="18"/>
<text text-anchor="middle" x="512" y="-273.3" font-family="Times New Roman,serif" font-size="14.00">nestor.bundles.rest</text>
</g>
<!-- nestor.dot -->
<g id="node3" class="node"><title>nestor.dot</title>
<ellipse fill="none" stroke="black" cx="510" cy="-189" rx="48.1437" ry="18"/>
<text text-anchor="middle" x="510" y="-185.3" font-family="Times New Roman,serif" font-size="14.00">nestor.dot</text>
</g>
<!-- nestor.bundles.rest&#45;&gt;nestor.dot -->
<g id="edge10" class="edge"><title>nestor.bundles.rest&#45;&gt;nestor.dot</title>
<path fill="none" stroke="black" d="M511.595,-258.597C511.32,-246.746 510.949,-230.817 510.635,-217.292"/>
<polygon fill="black" stroke="black" points="514.129,-217 510.397,-207.084 507.131,-217.163 514.129,-217"/>
</g>
<!-- nestor.rest -->
<g id="node6" class="node"><title>nestor.rest</title>
<ellipse fill="none" stroke="black" cx="627" cy="-189" rx="48.6179" ry="18"/>
<text text-anchor="middle" x="627" y="-185.3" font-family="Times New Roman,serif" font-size="14.00">nestor.rest</text>
</g>
<!-- nestor.bundles.rest&#45;&gt;nestor.rest -->
<g id="edge11" class="edge"><title>nestor.bundles.rest&#45;&gt;nestor.rest</title>
<path fill="none" stroke="black" stroke-dasharray="1,5" d="M524.739,-258.907C533.302,-248.228 545.311,-234.71 558,-225 566.65,-218.381 576.742,-212.444 586.496,-207.42"/>
<polygon fill="black" stroke="black" points="588.263,-210.452 595.686,-202.892 585.169,-204.173 588.263,-210.452"/>
<text text-anchor="middle" x="589.5" y="-229.3" font-family="Times New Roman,serif" font-size="14.00">whiteboard</text>
</g>
<!-- nestor.jdbc.pools -->
<g id="node4" class="node"><title>nestor.jdbc.pools</title>
<ellipse fill="none" stroke="black" cx="120" cy="-189" rx="74.6146" ry="18"/>
<text text-anchor="middle" x="120" y="-185.3" font-family="Times New Roman,serif" font-size="14.00">nestor.jdbc.pools</text>
</g>
<!-- pools -->
<g id="node15" class="node"><title>pools</title>
<ellipse fill="none" stroke="black" cx="120" cy="-115" rx="31.2965" ry="18"/>
<text text-anchor="middle" x="120" y="-111.3" font-family="Times New Roman,serif" font-size="14.00">pools</text>
</g>
<!-- nestor.jdbc.pools&#45;&gt;pools -->
<g id="edge1" class="edge"><title>nestor.jdbc.pools&#45;&gt;pools</title>
<path fill="none" stroke="black" d="M120,-170.937C120,-162.807 120,-152.876 120,-143.705"/>
<polygon fill="black" stroke="black" points="123.5,-143.441 120,-133.441 116.5,-143.441 123.5,-143.441"/>
</g>
<!-- nestor.logging -->
<g id="node5" class="node"><title>nestor.logging</title>
<ellipse fill="none" stroke="black" cx="1287" cy="-277" rx="61.6163" ry="18"/>
<text text-anchor="middle" x="1287" y="-273.3" font-family="Times New Roman,serif" font-size="14.00">nestor.logging</text>
</g>
<!-- nestor.security.http -->
<g id="node7" class="node"><title>nestor.security.http</title>
<ellipse fill="none" stroke="black" cx="888" cy="-277" rx="80.389" ry="18"/>
<text text-anchor="middle" x="888" y="-273.3" font-family="Times New Roman,serif" font-size="14.00">nestor.security.http</text>
</g>
<!-- nestor.useradmin -->
<g id="node12" class="node"><title>nestor.useradmin</title>
<ellipse fill="none" stroke="black" cx="888" cy="-189" rx="72.192" ry="18"/>
<text text-anchor="middle" x="888" y="-185.3" font-family="Times New Roman,serif" font-size="14.00">nestor.useradmin</text>
</g>
<!-- nestor.security.http&#45;&gt;nestor.useradmin -->
<g id="edge2" class="edge"><title>nestor.security.http&#45;&gt;nestor.useradmin</title>
<path fill="none" stroke="black" stroke-dasharray="1,5" d="M888,-258.597C888,-246.746 888,-230.817 888,-217.292"/>
<polygon fill="black" stroke="black" points="891.5,-217.084 888,-207.084 884.5,-217.084 891.5,-217.084"/>
<text text-anchor="middle" x="963" y="-229.3" font-family="Times New Roman,serif" font-size="14.00">org.osgi.service.useradmin</text>
</g>
<!-- nestor.soap -->
<g id="node8" class="node"><title>nestor.soap</title>
<ellipse fill="none" stroke="black" cx="1448" cy="-189" rx="52.9443" ry="18"/>
<text text-anchor="middle" x="1448" y="-185.3" font-family="Times New Roman,serif" font-size="14.00">nestor.soap</text>
</g>
<!-- nestor.transaction -->
<g id="node9" class="node"><title>nestor.transaction</title>
<ellipse fill="none" stroke="black" cx="334" cy="-277" rx="75.0904" ry="18"/>
<text text-anchor="middle" x="334" y="-273.3" font-family="Times New Roman,serif" font-size="14.00">nestor.transaction</text>
</g>
<!-- nestor.transaction.provider -->
<g id="node11" class="node"><title>nestor.transaction.provider</title>
<ellipse fill="none" stroke="black" cx="332" cy="-189" rx="108.31" ry="18"/>
<text text-anchor="middle" x="332" y="-185.3" font-family="Times New Roman,serif" font-size="14.00">nestor.transaction.provider</text>
</g>
<!-- nestor.transaction&#45;&gt;nestor.transaction.provider -->
<g id="edge3" class="edge"><title>nestor.transaction&#45;&gt;nestor.transaction.provider</title>
<path fill="none" stroke="black" stroke-dasharray="1,5" d="M333.595,-258.597C333.32,-246.746 332.949,-230.817 332.635,-217.292"/>
<polygon fill="black" stroke="black" points="336.129,-217 332.397,-207.084 329.131,-217.163 336.129,-217"/>
<text text-anchor="middle" x="381" y="-229.3" font-family="Times New Roman,serif" font-size="14.00">javax.transaction</text>
</g>
<!-- nestor.transaction.datasources -->
<g id="node10" class="node"><title>nestor.transaction.datasources</title>
<ellipse fill="none" stroke="black" cx="120" cy="-277" rx="120.334" ry="18"/>
<text text-anchor="middle" x="120" y="-273.3" font-family="Times New Roman,serif" font-size="14.00">nestor.transaction.datasources</text>
</g>
<!-- nestor.transaction.datasources&#45;&gt;nestor.jdbc.pools -->
<g id="edge5" class="edge"><title>nestor.transaction.datasources&#45;&gt;nestor.jdbc.pools</title>
<path fill="none" stroke="black" d="M120,-258.597C120,-246.746 120,-230.817 120,-217.292"/>
<polygon fill="black" stroke="black" points="123.5,-217.084 120,-207.084 116.5,-217.084 123.5,-217.084"/>
</g>
<!-- nestor.transaction.datasources&#45;&gt;nestor.transaction.provider -->
<g id="edge4" class="edge"><title>nestor.transaction.datasources&#45;&gt;nestor.transaction.provider</title>
<path fill="none" stroke="black" stroke-dasharray="1,5" d="M154.956,-259.722C177.606,-249.368 207.842,-235.906 235,-225 248.634,-219.525 263.494,-213.964 277.393,-208.934"/>
<polygon fill="black" stroke="black" points="278.606,-212.218 286.836,-205.545 276.241,-205.629 278.606,-212.218"/>
<text text-anchor="middle" x="282" y="-229.3" font-family="Times New Roman,serif" font-size="14.00">javax.transaction</text>
</g>
<!-- nestor.useradmin.rest -->
<g id="node13" class="node"><title>nestor.useradmin.rest</title>
<ellipse fill="none" stroke="black" cx="700" cy="-277" rx="88.0886" ry="18"/>
<text text-anchor="middle" x="700" y="-273.3" font-family="Times New Roman,serif" font-size="14.00">nestor.useradmin.rest</text>
</g>
<!-- nestor.useradmin.rest&#45;&gt;nestor.rest -->
<g id="edge7" class="edge"><title>nestor.useradmin.rest&#45;&gt;nestor.rest</title>
<path fill="none" stroke="black" stroke-dasharray="1,5" d="M653.997,-261.6C644.611,-256.553 635.834,-249.848 630,-241 625.519,-234.204 623.865,-225.726 623.588,-217.645"/>
<polygon fill="black" stroke="black" points="627.093,-217.526 623.893,-207.426 620.096,-217.316 627.093,-217.526"/>
<text text-anchor="middle" x="661.5" y="-229.3" font-family="Times New Roman,serif" font-size="14.00">whiteboard</text>
</g>
<!-- nestor.useradmin.rest&#45;&gt;nestor.useradmin -->
<g id="edge6" class="edge"><title>nestor.useradmin.rest&#45;&gt;nestor.useradmin</title>
<path fill="none" stroke="black" stroke-dasharray="1,5" d="M707.303,-258.792C712.971,-247.499 721.906,-233.33 734,-225 755.828,-209.966 783.13,-201.295 808.659,-196.326"/>
<polygon fill="black" stroke="black" points="809.483,-199.735 818.715,-194.537 808.256,-192.843 809.483,-199.735"/>
<text text-anchor="middle" x="809" y="-229.3" font-family="Times New Roman,serif" font-size="14.00">org.osgi.service.useradmin</text>
</g>
<!-- nestor.useradmin.spi.obelix -->
<g id="node14" class="node"><title>nestor.useradmin.spi.obelix</title>
<ellipse fill="none" stroke="black" cx="1097" cy="-277" rx="110.235" ry="18"/>
<text text-anchor="middle" x="1097" y="-273.3" font-family="Times New Roman,serif" font-size="14.00">nestor.useradmin.spi.obelix</text>
</g>
<!-- nestor.useradmin.spi.obelix&#45;&gt;nestor.useradmin -->
<g id="edge8" class="edge"><title>nestor.useradmin.spi.obelix&#45;&gt;nestor.useradmin</title>
<path fill="none" stroke="black" d="M1082.85,-258.828C1072.63,-247.552 1057.89,-233.387 1042,-225 1017.7,-212.178 988.834,-204.031 962.693,-198.864"/>
<polygon fill="black" stroke="black" points="963.296,-195.416 952.824,-197.026 962.014,-202.298 963.296,-195.416"/>
</g>
<!-- pools&#45;&gt;counters -->
<g id="edge9" class="edge"><title>pools&#45;&gt;counters</title>
<path fill="none" stroke="black" d="M120,-96.937C120,-88.8072 120,-78.8761 120,-69.7047"/>
<polygon fill="black" stroke="black" points="123.5,-69.4406 120,-59.4407 116.5,-69.4407 123.5,-69.4406"/>
</g>
<!-- nestor.soap.sample -->
<g id="node16" class="node"><title>nestor.soap.sample</title>
<ellipse fill="none" stroke="black" cx="1448" cy="-277" rx="81.3646" ry="18"/>
<text text-anchor="middle" x="1448" y="-273.3" font-family="Times New Roman,serif" font-size="14.00">nestor.soap.sample</text>
</g>
<!-- nestor.soap.sample&#45;&gt;nestor.soap -->
<g id="edge12" class="edge"><title>nestor.soap.sample&#45;&gt;nestor.soap</title>
<path fill="none" stroke="black" stroke-dasharray="1,5" d="M1448,-258.597C1448,-246.746 1448,-230.817 1448,-217.292"/>
<polygon fill="black" stroke="black" points="1451.5,-217.084 1448,-207.084 1444.5,-217.084 1451.5,-217.084"/>
<text text-anchor="middle" x="1479.5" y="-229.3" font-family="Times New Roman,serif" font-size="14.00">whiteboard</text>
</g>
</g>
</svg>
