<?xml version="1.0" encoding="UTF-8" standalone="no"?>
<!DOCTYPE svg PUBLIC "-//W3C//DTD SVG 1.1//EN"
 "http://www.w3.org/Graphics/SVG/1.1/DTD/svg11.dtd">
<!-- Generated by graphviz version 2.34.0 (20130907.0111)
 -->
<!-- Title: Bundles Pages: 1 -->
<svg width="2016pt" height="303pt"
 viewBox="0.00 0.00 2016.00 303.00" xmlns="http://www.w3.org/2000/svg" xmlns:xlink="http://www.w3.org/1999/xlink">
<g id="graph0" class="graph" transform="scale(1 1) rotate(0) translate(4 299)">
<title>Bundles</title>
<polygon fill="white" stroke="white" points="-4,4 -4,-299 2012,-299 2012,4 -4,4"/>
<text text-anchor="middle" x="1004" y="-7.8" font-family="Times New Roman,serif" font-size="14.00">Bundle Dependencies</text>
<!-- counters -->
<g id="node1" class="node"><title>counters</title>
<ellipse fill="none" stroke="black" cx="120" cy="-41" rx="42.3701" ry="18"/>
<text text-anchor="middle" x="120" y="-37.3" font-family="Times New Roman,serif" font-size="14.00">counters</text>
</g>
<!-- nestor.bundles.rest -->
<g id="node2" class="node"><title>nestor.bundles.rest</title>
<ellipse fill="none" stroke="black" cx="512" cy="-277" rx="78.9404" ry="18"/>
<text text-anchor="middle" x="512" y="-273.3" font-family="Times New Roman,serif" font-size="14.00">nestor.bundles.rest</text>
</g>
<!-- nestor.dot -->
<g id="node3" class="node"><title>nestor.dot</title>
<ellipse fill="none" stroke="black" cx="511" cy="-189" rx="48.1437" ry="18"/>
<text text-anchor="middle" x="511" y="-185.3" font-family="Times New Roman,serif" font-size="14.00">nestor.dot</text>
</g>
<!-- nestor.bundles.rest&#45;&gt;nestor.dot -->
<g id="edge10" class="edge"><title>nestor.bundles.rest&#45;&gt;nestor.dot</title>
<path fill="none" stroke="black" d="M511.798,-258.597C511.66,-246.746 511.475,-230.817 511.317,-217.292"/>
<polygon fill="black" stroke="black" points="514.815,-217.043 511.199,-207.084 507.815,-217.124 514.815,-217.043"/>
</g>
<!-- nestor.rest -->
<g id="node8" class="node"><title>nestor.rest</title>
<ellipse fill="none" stroke="black" cx="628" cy="-189" rx="48.6179" ry="18"/>
<text text-anchor="middle" x="628" y="-185.3" font-family="Times New Roman,serif" font-size="14.00">nestor.rest</text>
</g>
<!-- nestor.bundles.rest&#45;&gt;nestor.rest -->
<g id="edge11" class="edge"><title>nestor.bundles.rest&#45;&gt;nestor.rest</title>
<path fill="none" stroke="black" stroke-dasharray="1,5" d="M525.083,-258.925C533.86,-248.253 546.134,-234.736 559,-225 567.685,-218.428 577.791,-212.507 587.546,-207.485"/>
<polygon fill="black" stroke="black" points="589.313,-210.516 596.733,-202.954 586.217,-204.238 589.313,-210.516"/>
<text text-anchor="middle" x="590.5" y="-229.3" font-family="Times New Roman,serif" font-size="14.00">whiteboard</text>
</g>
<!-- nestor.jdbc.api -->
<g id="node4" class="node"><title>nestor.jdbc.api</title>
<ellipse fill="none" stroke="black" cx="1251" cy="-189" rx="64.4914" ry="18"/>
<text text-anchor="middle" x="1251" y="-185.3" font-family="Times New Roman,serif" font-size="14.00">nestor.jdbc.api</text>
</g>
<!-- nestor.jdbc.pools -->
<g id="node5" class="node"><title>nestor.jdbc.pools</title>
<ellipse fill="none" stroke="black" cx="120" cy="-189" rx="74.6146" ry="18"/>
<text text-anchor="middle" x="120" y="-185.3" font-family="Times New Roman,serif" font-size="14.00">nestor.jdbc.pools</text>
</g>
<!-- pools -->
<g id="node19" class="node"><title>pools</title>
<ellipse fill="none" stroke="black" cx="120" cy="-115" rx="31.2965" ry="18"/>
<text text-anchor="middle" x="120" y="-111.3" font-family="Times New Roman,serif" font-size="14.00">pools</text>
</g>
<!-- nestor.jdbc.pools&#45;&gt;pools -->
<g id="edge1" class="edge"><title>nestor.jdbc.pools&#45;&gt;pools</title>
<path fill="none" stroke="black" d="M120,-170.937C120,-162.807 120,-152.876 120,-143.705"/>
<polygon fill="black" stroke="black" points="123.5,-143.441 120,-133.441 116.5,-143.441 123.5,-143.441"/>
</g>
<!-- nestor.logging -->
<g id="node6" class="node"><title>nestor.logging</title>
<ellipse fill="none" stroke="black" cx="1529" cy="-277" rx="61.6163" ry="18"/>
<text text-anchor="middle" x="1529" y="-273.3" font-family="Times New Roman,serif" font-size="14.00">nestor.logging</text>
</g>
<!-- nestor.rdbms.schema -->
<g id="node7" class="node"><title>nestor.rdbms.schema</title>
<ellipse fill="none" stroke="black" cx="1423" cy="-189" rx="89.0632" ry="18"/>
<text text-anchor="middle" x="1423" y="-185.3" font-family="Times New Roman,serif" font-size="14.00">nestor.rdbms.schema</text>
</g>
<!-- nestor.security.http -->
<g id="node9" class="node"><title>nestor.security.http</title>
<ellipse fill="none" stroke="black" cx="888" cy="-277" rx="80.389" ry="18"/>
<text text-anchor="middle" x="888" y="-273.3" font-family="Times New Roman,serif" font-size="14.00">nestor.security.http</text>
</g>
<!-- nestor.useradmin -->
<g id="node14" class="node"><title>nestor.useradmin</title>
<ellipse fill="none" stroke="black" cx="949" cy="-189" rx="72.192" ry="18"/>
<text text-anchor="middle" x="949" y="-185.3" font-family="Times New Roman,serif" font-size="14.00">nestor.useradmin</text>
</g>
<!-- nestor.security.http&#45;&gt;nestor.useradmin -->
<g id="edge2" class="edge"><title>nestor.security.http&#45;&gt;nestor.useradmin</title>
<path fill="none" stroke="black" stroke-dasharray="1,5" d="M900.052,-259.009C908.908,-246.524 921.088,-229.352 931.082,-215.261"/>
<polygon fill="black" stroke="black" points="934.043,-217.137 936.973,-206.956 928.333,-213.087 934.043,-217.137"/>
<text text-anchor="middle" x="999" y="-229.3" font-family="Times New Roman,serif" font-size="14.00">org.osgi.service.useradmin</text>
</g>
<!-- nestor.soap -->
<g id="node10" class="node"><title>nestor.soap</title>
<ellipse fill="none" stroke="black" cx="1690" cy="-189" rx="52.9443" ry="18"/>
<text text-anchor="middle" x="1690" y="-185.3" font-family="Times New Roman,serif" font-size="14.00">nestor.soap</text>
</g>
<!-- nestor.transaction -->
<g id="node11" class="node"><title>nestor.transaction</title>
<ellipse fill="none" stroke="black" cx="334" cy="-277" rx="75.0904" ry="18"/>
<text text-anchor="middle" x="334" y="-273.3" font-family="Times New Roman,serif" font-size="14.00">nestor.transaction</text>
</g>
<!-- nestor.transaction.provider -->
<g id="node13" class="node"><title>nestor.transaction.provider</title>
<ellipse fill="none" stroke="black" cx="333" cy="-189" rx="108.31" ry="18"/>
<text text-anchor="middle" x="333" y="-185.3" font-family="Times New Roman,serif" font-size="14.00">nestor.transaction.provider</text>
</g>
<!-- nestor.transaction&#45;&gt;nestor.transaction.provider -->
<g id="edge3" class="edge"><title>nestor.transaction&#45;&gt;nestor.transaction.provider</title>
<path fill="none" stroke="black" stroke-dasharray="1,5" d="M333.798,-258.597C333.66,-246.746 333.475,-230.817 333.317,-217.292"/>
<polygon fill="black" stroke="black" points="336.815,-217.043 333.199,-207.084 329.815,-217.124 336.815,-217.043"/>
<text text-anchor="middle" x="381" y="-229.3" font-family="Times New Roman,serif" font-size="14.00">javax.transaction</text>
</g>
<!-- nestor.transaction.datasources -->
<g id="node12" class="node"><title>nestor.transaction.datasources</title>
<ellipse fill="none" stroke="black" cx="120" cy="-277" rx="120.334" ry="18"/>
<text text-anchor="middle" x="120" y="-273.3" font-family="Times New Roman,serif" font-size="14.00">nestor.transaction.datasources</text>
</g>
<!-- nestor.transaction.datasources&#45;&gt;nestor.jdbc.pools -->
<g id="edge5" class="edge"><title>nestor.transaction.datasources&#45;&gt;nestor.jdbc.pools</title>
<path fill="none" stroke="black" d="M120,-258.597C120,-246.746 120,-230.817 120,-217.292"/>
<polygon fill="black" stroke="black" points="123.5,-217.084 120,-207.084 116.5,-217.084 123.5,-217.084"/>
</g>
<!-- nestor.transaction.datasources&#45;&gt;nestor.transaction.provider -->
<g id="edge4" class="edge"><title>nestor.transaction.datasources&#45;&gt;nestor.transaction.provider</title>
<path fill="none" stroke="black" stroke-dasharray="1,5" d="M155.274,-259.746C178.127,-249.402 208.627,-235.941 236,-225 249.777,-219.493 264.8,-213.884 278.818,-208.815"/>
<polygon fill="black" stroke="black" points="280.104,-212.072 288.335,-205.401 277.74,-205.484 280.104,-212.072"/>
<text text-anchor="middle" x="283" y="-229.3" font-family="Times New Roman,serif" font-size="14.00">javax.transaction</text>
</g>
<!-- nestor.useradmin.rest -->
<g id="node15" class="node"><title>nestor.useradmin.rest</title>
<ellipse fill="none" stroke="black" cx="700" cy="-277" rx="88.0886" ry="18"/>
<text text-anchor="middle" x="700" y="-273.3" font-family="Times New Roman,serif" font-size="14.00">nestor.useradmin.rest</text>
</g>
<!-- nestor.useradmin.rest&#45;&gt;nestor.rest -->
<g id="edge7" class="edge"><title>nestor.useradmin.rest&#45;&gt;nestor.rest</title>
<path fill="none" stroke="black" stroke-dasharray="1,5" d="M654.642,-261.478C645.391,-256.436 636.742,-249.763 631,-241 626.538,-234.191 624.89,-225.709 624.612,-217.629"/>
<polygon fill="black" stroke="black" points="628.117,-217.511 624.913,-207.412 621.12,-217.305 628.117,-217.511"/>
<text text-anchor="middle" x="662.5" y="-229.3" font-family="Times New Roman,serif" font-size="14.00">whiteboard</text>
</g>
<!-- nestor.useradmin.rest&#45;&gt;nestor.useradmin -->
<g id="edge6" class="edge"><title>nestor.useradmin.rest&#45;&gt;nestor.useradmin</title>
<path fill="none" stroke="black" stroke-dasharray="1,5" d="M715.146,-259.138C726.391,-247.7 742.714,-233.218 760,-225 793.876,-208.894 834.441,-200.184 869.29,-195.48"/>
<polygon fill="black" stroke="black" points="869.948,-198.925 879.431,-194.201 869.072,-191.98 869.948,-198.925"/>
<text text-anchor="middle" x="835" y="-229.3" font-family="Times New Roman,serif" font-size="14.00">org.osgi.service.useradmin</text>
</g>
<!-- nestor.useradmin.spi.obelix -->
<g id="node16" class="node"><title>nestor.useradmin.spi.obelix</title>
<ellipse fill="none" stroke="black" cx="1097" cy="-277" rx="110.235" ry="18"/>
<text text-anchor="middle" x="1097" y="-273.3" font-family="Times New Roman,serif" font-size="14.00">nestor.useradmin.spi.obelix</text>
</g>
<!-- nestor.useradmin.spi.obelix&#45;&gt;nestor.useradmin -->
<g id="edge8" class="edge"><title>nestor.useradmin.spi.obelix&#45;&gt;nestor.useradmin</title>
<path fill="none" stroke="black" d="M1094.65,-258.596C1092.26,-247.513 1087.49,-233.661 1078,-225 1063.62,-211.882 1044.81,-203.602 1026.03,-198.399"/>
<polygon fill="black" stroke="black" points="1026.78,-194.979 1016.23,-195.95 1025.08,-201.771 1026.78,-194.979"/>
</g>
<!-- nestor.useradmin.spi.rdbms -->
<g id="node17" class="node"><title>nestor.useradmin.spi.rdbms</title>
<ellipse fill="none" stroke="black" cx="1337" cy="-277" rx="111.186" ry="18"/>
<text text-anchor="middle" x="1337" y="-273.3" font-family="Times New Roman,serif" font-size="14.00">nestor.useradmin.spi.rdbms</text>
</g>
<!-- nestor.useradmin.spi.rdbms&#45;&gt;nestor.jdbc.api -->
<g id="edge13" class="edge"><title>nestor.useradmin.spi.rdbms&#45;&gt;nestor.jdbc.api</title>
<path fill="none" stroke="black" d="M1320.01,-259.009C1307.09,-246.087 1289.14,-228.145 1274.79,-213.794"/>
<polygon fill="black" stroke="black" points="1277.21,-211.259 1267.66,-206.663 1272.26,-216.209 1277.21,-211.259"/>
</g>
<!-- nestor.useradmin.spi.rdbms&#45;&gt;nestor.rdbms.schema -->
<g id="edge14" class="edge"><title>nestor.useradmin.spi.rdbms&#45;&gt;nestor.rdbms.schema</title>
<path fill="none" stroke="black" d="M1353.99,-259.009C1366.83,-246.17 1384.62,-228.376 1398.93,-214.072"/>
<polygon fill="black" stroke="black" points="1401.45,-216.502 1406.04,-206.956 1396.5,-211.552 1401.45,-216.502"/>
</g>
<!-- nestor.useradmin.spi.rdbms&#45;&gt;nestor.useradmin -->
<g id="edge15" class="edge"><title>nestor.useradmin.spi.rdbms&#45;&gt;nestor.useradmin</title>
<path fill="none" stroke="black" d="M1274.23,-262.087C1201.72,-246.014 1083.15,-219.735 1010.98,-203.737"/>
<polygon fill="black" stroke="black" points="1011.63,-200.297 1001.11,-201.55 1010.11,-207.131 1011.63,-200.297"/>
</g>
<!-- nestor.webconsole.security -->
<g id="node18" class="node"><title>nestor.webconsole.security</title>
<ellipse fill="none" stroke="black" cx="1899" cy="-277" rx="109.261" ry="18"/>
<text text-anchor="middle" x="1899" y="-273.3" font-family="Times New Roman,serif" font-size="14.00">nestor.webconsole.security</text>
</g>
<!-- pools&#45;&gt;counters -->
<g id="edge9" class="edge"><title>pools&#45;&gt;counters</title>
<path fill="none" stroke="black" d="M120,-96.937C120,-88.8072 120,-78.8761 120,-69.7047"/>
<polygon fill="black" stroke="black" points="123.5,-69.4406 120,-59.4407 116.5,-69.4407 123.5,-69.4406"/>
</g>
<!-- nestor.soap.sample -->
<g id="node20" class="node"><title>nestor.soap.sample</title>
<ellipse fill="none" stroke="black" cx="1690" cy="-277" rx="81.3646" ry="18"/>
<text text-anchor="middle" x="1690" y="-273.3" font-family="Times New Roman,serif" font-size="14.00">nestor.soap.sample</text>
</g>
<!-- nestor.soap.sample&#45;&gt;nestor.soap -->
<g id="edge12" class="edge"><title>nestor.soap.sample&#45;&gt;nestor.soap</title>
<path fill="none" stroke="black" stroke-dasharray="1,5" d="M1690,-258.597C1690,-246.746 1690,-230.817 1690,-217.292"/>
<polygon fill="black" stroke="black" points="1693.5,-217.084 1690,-207.084 1686.5,-217.084 1693.5,-217.084"/>
<text text-anchor="middle" x="1721.5" y="-229.3" font-family="Times New Roman,serif" font-size="14.00">whiteboard</text>
</g>
</g>
</svg>
